<svg width="14" height="14" viewBox="0 0 14 14" fill="none" xmlns="http://www.w3.org/2000/svg">
<path d="M9.33334 4.66669C10.2616 4.66669 11.1518 5.03544 11.8082 5.69181C12.4646 6.34819 12.8333 7.23843 12.8333 8.16669V12.25H10.5V8.16669C10.5 7.85727 10.3771 7.56052 10.1583 7.34173C9.93951 7.12294 9.64276 7.00002 9.33334 7.00002C9.02392 7.00002 8.72718 7.12294 8.50839 7.34173C8.28959 7.56052 8.16668 7.85727 8.16668 8.16669V12.25H5.83334V8.16669C5.83334 7.23843 6.20209 6.34819 6.85847 5.69181C7.51485 5.03544 8.40509 4.66669 9.33334 4.66669Z" fill="#101010"/>
<path d="M1.16667 5.25H3.50001V12.25H1.16667V5.25Z" fill="#101010"/>
<path d="M2.33334 3.50002C2.97767 3.50002 3.50001 2.97769 3.50001 2.33335C3.50001 1.68902 2.97767 1.16669 2.33334 1.16669C1.68901 1.16669 1.16667 1.68902 1.16667 2.33335C1.16667 2.97769 1.68901 3.50002 2.33334 3.50002Z" fill="#101010"/>
</svg>
