<svg width="26" height="19" viewBox="0 0 26 19" fill="none" xmlns="http://www.w3.org/2000/svg"><path d="M20.605 8.05002C20.605 7.61502 20.75 7.18002 20.75 6.60002 20.75 3.41002 18.14.800018 14.95.800018 12.63.800018 10.745 2.10502 9.73001 3.99002 9.44001 3.84502 8.86001 3.70002 8.42501 3.70002 6.39501 3.70002 4.80001 5.29502 4.80001 7.32502 4.80001 7.61502 4.80001 7.90502 4.94501 8.05002 2.33501 8.48502.450008 10.515.450008 13.125.450008 15.88 2.77001 18.2 5.52501 18.2H20.025C22.78 18.2 25.1 15.88 25.1 13.125 25.1 10.515 23.215 8.34002 20.605 8.05002z" fill="#fff"/></svg>