<svg width="32" height="32" viewBox="0 0 32 32" fill="none" xmlns="http://www.w3.org/2000/svg"><path d="M24 3.3C21.65 1.85 18.95 1 16 1V3.3h8z" fill="#ed4c5c"/><path d="M16 5.59999H26.8C25.95 4.74999 25 3.94999 24 3.29999H16v2.3z" fill="#fff"/><path d="M16 7.90001H28.65C28.1 7.05001 27.5 6.30001 26.85 5.60001H16v2.3z" fill="#ed4c5c"/><path d="M16 10.2H29.85C29.5 9.39999 29.1 8.59999 28.65 7.89999H16V10.2z" fill="#fff"/><path d="M16 12.5H30.6C30.4 11.7 30.15 10.95 29.85 10.2H16V12.5z" fill="#ed4c5c"/><path d="M16 14.85H30.95C30.9 14.05 30.75 13.3 30.6 12.55H16V14.85z" fill="#fff"/><path d="M30.95 14.85H16V16H1C1 16.4 1 16.75 1.05 17.15h29.9C31 16.75 31 16.4 31 16 31 15.6 31 15.2 30.95 14.85z" fill="#ed4c5c"/><path d="M1.39999 19.45H30.6C30.8 18.7 30.9 17.95 30.95 17.15H1.04999C1.09999 17.9 1.19999 18.7 1.39999 19.45z" fill="#fff"/><path d="M2.15002 21.75H29.85C30.15 21 30.4 20.25 30.6 19.45H1.40002C1.60002 20.25 1.85002 21 2.15002 21.75z" fill="#ed4c5c"/><path d="M3.35002 24.05H28.65C29.1 23.3 29.5 22.55 29.85 21.75H2.15002C2.50002 22.55 2.90002 23.3 3.35002 24.05z" fill="#fff"/><path d="M5.14998 26.35H26.85C27.5 25.65 28.15 24.85 28.65 24.05H3.34998C3.84998 24.9 4.49998 25.65 5.14998 26.35z" fill="#ed4c5c"/><path d="M7.95002 28.65H24.05C25.1 28 26 27.2 26.85 26.35H5.15002C6.00002 27.25 6.95002 28 7.95002 28.65z" fill="#fff"/><path d="M16 31C18.95 31 21.7 30.15 24.05 28.65H7.95001C10.3 30.15 13.05 31 16 31z" fill="#ed4c5c"/><path d="M8 3.3C6.95 3.95 6 4.75 5.15 5.6 4.45 6.3 3.85 7.1 3.35 7.9 2.9 8.65 2.45 9.4 2.15 10.2 1.85 10.95 1.6 11.7 1.4 12.5 1.2 13.25 1.1 14 1.05 14.8 1 15.2 1 15.6 1 16H16V1C13.05 1 10.35 1.85 8 3.3z" fill="#428bc1"/><path d="M12.5 1.5l.25.75h.75L12.9 2.75 13.1 3.5 12.5 3.05 11.9 3.5 12.1 2.75 11.5 2.25h.75l.25-.75z" fill="#fff"/><path d="M14.5 4.5l.25.75h.75L14.9 5.75 15.1 6.5 14.5 6.05 13.9 6.5 14.1 5.75 13.5 5.25h.75l.25-.75z" fill="#fff"/><path d="M10.5 4.5l.25.75h.75L10.9 5.75 11.1 6.5 10.5 6.05 9.9 6.5 10.1 5.75 9.5 5.25h.75l.25-.75z" fill="#fff"/><path d="M12.5 7.5l.25.75h.75L12.9 8.75 13.1 9.5 12.5 9.05 11.9 9.5 12.1 8.75 11.5 8.25h.75l.25-.75z" fill="#fff"/><path d="M8.5 7.5l.25.75H9.5L8.9 8.75 9.1 9.5 8.5 9.05 7.9 9.5 8.1 8.75 7.5 8.25h.75L8.5 7.5z" fill="#fff"/><path d="M4.5 7.5l.25.75H5.5L4.9 8.75 5.1 9.5 4.5 9.05 3.9 9.5 4.1 8.75 3.5 8.25h.75L4.5 7.5z" fill="#fff"/><path d="M14.5 10.5l.25.75h.75L14.9 11.75 15.1 12.5 14.5 12.05 13.9 12.5 14.1 11.75 13.5 11.25h.75l.25-.75z" fill="#fff"/><path d="M10.5 10.5l.25.75h.75L10.9 11.75 11.1 12.5 10.5 12.05 9.9 12.5 10.1 11.75 9.5 11.25h.75l.25-.75z" fill="#fff"/><path d="M6.5 10.5l.25.75H7.5L6.9 11.75 7.1 12.5 6.5 12.05 5.9 12.5 6.1 11.75 5.5 11.25h.75l.25-.75z" fill="#fff"/><path d="M12.5 13.5l.25.75h.75L12.9 14.75 13.1 15.5 12.5 15.05 11.9 15.5 12.1 14.75 11.5 14.25h.75l.25-.75z" fill="#fff"/><path d="M8.5 13.5l.25.75H9.5L8.9 14.75 9.1 15.5 8.5 15.05 7.9 15.5 8.1 14.75 7.5 14.25h.75l.25-.75z" fill="#fff"/><path d="M4.5 13.5l.25.75H5.5L4.9 14.75 5.1 15.5 4.5 15.05 3.9 15.5 4.1 14.75 3.5 14.25h.75l.25-.75z" fill="#fff"/><path d="M5.89999 6.5 6.49999 6.05 7.09999 6.5l-.25-.75L7.44999 5.25h-.75L6.49999 4.5l-.25.75H5.54999L6.14999 5.7 5.89999 6.5z" fill="#fff"/><path d="M1.90001 12.5 2.50001 12.05 3.10001 12.5l-.25-.75L3.45001 11.25H2.75001l-.25-.75-.25.75h-.5C1.75001 11.3 1.70001 11.35 1.70001 11.4L2.10001 11.7 1.90001 12.5z" fill="#fff"/></svg>