<svg width="32" height="33" viewBox="0 0 32 33" fill="none" xmlns="http://www.w3.org/2000/svg">
<path d="M3 4.29213V28.8546C3.00016 28.9079 3.01606 28.96 3.04569 29.0043C3.07532 29.0486 3.11737 29.0831 3.16656 29.1036C3.21575 29.1241 3.2699 29.1296 3.32222 29.1195C3.37453 29.1093 3.42268 29.0839 3.46062 29.0465L16.25 16.574L3.46062 4.10025C3.42268 4.06284 3.37453 4.03746 3.32222 4.0273C3.2699 4.01714 3.21575 4.02265 3.16656 4.04315C3.11737 4.06364 3.07532 4.0982 3.04569 4.14249C3.01606 4.18678 3.00016 4.23884 3 4.29213Z" fill="white"/>
<path d="M21.6125 11.449L5.57627 2.61401L5.56627 2.60838C5.29002 2.45838 5.02752 2.83213 5.25377 3.04963L17.8244 15.0696L21.6125 11.449Z" fill="white"/>
<path d="M5.25499 30.0984C5.02749 30.3159 5.28999 30.6896 5.56749 30.5396L5.57749 30.534L21.6125 21.699L17.8244 18.0771L5.25499 30.0984Z" fill="white"/>
<path d="M28.0863 15.0115L23.6081 12.5453L19.3975 16.574L23.6081 20.6009L28.0863 18.1365C29.3044 17.4634 29.3044 15.6846 28.0863 15.0115Z" fill="white"/>
</svg>
