<svg width="32" height="33" viewBox="0 0 32 33" fill="none" xmlns="http://www.w3.org/2000/svg">
<path d="M16 2.57401C8.26625 2.57401 2 8.84026 2 16.574C2 24.3078 8.26625 30.574 16 30.574C23.7337 30.574 30 24.3078 30 16.574C30 8.84026 23.7337 2.57401 16 2.57401ZM10.6875 22.6921C10.6016 22.8387 10.4786 22.96 10.3309 23.0439C10.1833 23.1278 10.0161 23.1714 9.84625 23.1703C9.67314 23.1718 9.50303 23.125 9.355 23.0353C9.24478 22.9714 9.14826 22.8864 9.07098 22.7851C8.9937 22.6838 8.93718 22.5683 8.90466 22.4451C8.87214 22.322 8.86426 22.1936 8.88148 22.0674C8.8987 21.9412 8.94068 21.8196 9.005 21.7096L9.96062 20.1209C10.0089 20.0389 10.0778 19.9709 10.1605 19.9238C10.2431 19.8766 10.3367 19.8519 10.4319 19.8521H10.5731C11.2662 19.8521 11.7513 20.269 11.8925 20.6728L10.6875 22.6921ZM18.7781 19.5671L12.52 19.574H8.36063C8.22976 19.5746 8.10015 19.5485 7.97965 19.4975C7.85915 19.4464 7.75027 19.3714 7.65963 19.2771C7.56898 19.1827 7.49845 19.0709 7.45232 18.9484C7.40618 18.8259 7.38541 18.6954 7.39125 18.5646C7.41125 18.0396 7.86937 17.6421 8.39125 17.6421H11.4062L14.9806 11.5578L13.8231 9.58588C13.5625 9.13651 13.6781 8.544 14.125 8.26151C14.2352 8.19025 14.3586 8.14202 14.4879 8.1197C14.6172 8.09737 14.7497 8.10143 14.8773 8.13161C15.005 8.16179 15.1253 8.21749 15.2309 8.29534C15.3365 8.37319 15.4253 8.47159 15.4919 8.58463L16.1106 9.64151H16.1175L16.7369 8.58463C16.8036 8.47218 16.8922 8.3743 16.9975 8.29684C17.1028 8.21938 17.2227 8.16392 17.3499 8.13377C17.4771 8.10361 17.609 8.09938 17.7379 8.12133C17.8668 8.14327 17.9899 8.19095 18.1 8.26151C18.5444 8.544 18.6588 9.13651 18.3962 9.58776L17.2388 11.5596L16.1138 13.4778L13.6706 17.644V17.6509H17.2712C17.7225 17.6509 18.2881 17.8934 18.5169 18.2834L18.5369 18.324C18.7388 18.6671 18.8531 18.9028 18.8531 19.2459C18.8498 19.3573 18.825 19.467 18.78 19.569L18.7781 19.5671ZM23.6375 19.574H21.9431V19.5809L23.1819 21.6878C23.3151 21.9096 23.3559 22.175 23.2955 22.4266C23.235 22.6783 23.0782 22.8962 22.8587 23.0334C22.7066 23.1261 22.5319 23.1752 22.3538 23.1753C22.1844 23.1752 22.0179 23.1313 21.8705 23.0478C21.723 22.9644 21.5997 22.8442 21.5125 22.699L19.6819 19.5828L18.5444 17.6453L17.0769 15.1365C16.8643 14.7783 16.7488 14.3709 16.7417 13.9544C16.7345 13.5379 16.8361 13.1268 17.0362 12.7615C17.3262 12.2496 17.5481 12.1153 17.5481 12.1153L20.8125 17.6365H23.6194C24.1444 17.6365 24.595 18.0403 24.6194 18.5584C24.6244 18.6901 24.6028 18.8215 24.5558 18.9447C24.5088 19.0678 24.4374 19.1802 24.3458 19.2751C24.2543 19.3699 24.1445 19.4453 24.0231 19.4967C23.9017 19.5481 23.7712 19.5744 23.6394 19.574H23.6375Z" fill="white"/>
</svg>
